SplineFontDB: 3.0
FontName: SortsMillWalbaum6-Italic
FullName: Sorts Mill Walbaum 6-point Italic
FamilyName: SortsMillWalbaum6
Weight: Book
Copyright: Copyright (c) 2009 Barry Schwartz\n\nPermission is hereby granted, free of charge, to any person\nobtaining a copy of this software and associated documentation\nfiles (the "Software"), to deal in the Software without\nrestriction, including without limitation the rights to use,\ncopy, modify, merge, publish, distribute, sublicense, and/or sell\ncopies of the Software, and to permit persons to whom the\nSoftware is furnished to do so, subject to the following\nconditions:\n\nThe above copyright notice and this permission notice shall be\nincluded in all copies or substantial portions of the Software.\n\nTHE SOFTWARE IS PROVIDED "AS IS", WITHOUT WARRANTY OF ANY KIND,\nEXPRESS OR IMPLIED, INCLUDING BUT NOT LIMITED TO THE WARRANTIES\nOF MERCHANTABILITY, FITNESS FOR A PARTICULAR PURPOSE AND\nNONINFRINGEMENT. IN NO EVENT SHALL THE AUTHORS OR COPYRIGHT\nHOLDERS BE LIABLE FOR ANY CLAIM, DAMAGES OR OTHER LIABILITY,\nWHETHER IN AN ACTION OF CONTRACT, TORT OR OTHERWISE, ARISING\nFROM, OUT OF OR IN CONNECTION WITH THE SOFTWARE OR THE USE OR\nOTHER DEALINGS IN THE SOFTWARE.
UComments: "2009-7-28: Created." 
Version: 001.000
ItalicAngle: -12
UnderlinePosition: -204
UnderlineWidth: 102
Ascent: 1472
Descent: 576
LayerCount: 3
Layer: 0 0 "Back"  1
Layer: 1 0 "Fore"  0
Layer: 2 0 "backup"  1
NeedsXUIDChange: 1
XUID: [1021 658 797806517 12611104]
FSType: 0
OS2Version: 0
OS2_WeightWidthSlopeOnly: 0
OS2_UseTypoMetrics: 1
CreationTime: 1248824893
ModificationTime: 1249083043
OS2TypoAscent: 0
OS2TypoAOffset: 1
OS2TypoDescent: 0
OS2TypoDOffset: 1
OS2TypoLinegap: 184
OS2WinAscent: 0
OS2WinAOffset: 1
OS2WinDescent: 0
OS2WinDOffset: 1
HheadAscent: 0
HheadAOffset: 1
HheadDescent: 0
HheadDOffset: 1
OS2Vendor: 'PfEd'
DEI: 91125
Encoding: UnicodeBmp
UnicodeInterp: none
NameList: Adobe Glyph List
DisplaySize: -72
AntiAlias: 1
FitToEm: 1

StartChar: y
Encoding: 121 121 0
Width: 1412
VWidth: 0
Flags: HW
HStem: -546 111<-23 245> 687 262<1235 1423> 770 163<362 632>
VStem: -140 230<-429 -287>
LayerCount: 3
Fore
SplineSet
1213 758 m 1xd0
 940 558 766 204 601 -80 c 0
 537 -190 376 -546 54 -546 c 0
 -99 -546 -140 -454 -140 -383 c 0
 -140 -301 -87 -262 -31 -262 c 0
 28 -262 90 -306 90 -386 c 0
 90 -400 90 -415 88 -430 c 1
 98 -434 110 -434 123 -434 c 0
 261 -434 553 -206 553 328 c 0
 553 632 506 770 424 770 c 0
 364 770 283 697 189 561 c 0
 165 528 153 524 142 524 c 0
 129 524 98 526 98 562 c 0
 98 628 297 933 511 933 c 0xb0
 753 933 736 476 746 360 c 1
 796 458 959 680 1149 860 c 0
 1220 927 1279 949 1326 949 c 0
 1406 949 1466 860 1466 810 c 0
 1466 749 1413 687 1335 687 c 0
 1287 687 1256 709 1213 758 c 1xd0
EndSplineSet
EndChar

StartChar: Q
Encoding: 81 81 1
Width: 1593
VWidth: 0
Flags: W
HStem: -634 54<814.334 1108> -48 58<469.606 776.47> 1500 50<813.598 1091.41>
VStem: 82 214<313.466 678.395> 1300 205<810.332 1218.68>
LayerCount: 3
Fore
SplineSet
82 569 m 0
 82 941 425 1550 931 1550 c 0
 1389 1550 1505 1240 1505 952 c 0
 1505 809 1463 588 1397 466 c 0
 1216 124 950 -48 652 -48 c 0
 591 -48 534 -44 468 -38 c 9
 545 -110 596 -142 664 -222 c 0
 765 -341 717 -450 812 -558 c 16
 830 -578 854 -580 883 -580 c 2
 1108 -580 l 9
 1108 -634 l 17
 875 -634 l 2
 418 -634 519 -150 415 -36 c 0
 391 -8 368 12 346 29 c 0
 345 30 82 169 82 569 c 0
296 358 m 0
 296 96 412 10 588 10 c 0
 774 10 935 80 1037 216 c 0
 1185 412 1300 978 1300 1074 c 0
 1300 1466 1077 1500 953 1500 c 0
 815 1500 696 1438 599 1332 c 0
 490 1213 296 665 296 358 c 0
EndSplineSet
Validated: 1
EndChar

StartChar: O
Encoding: 79 79 2
Width: 1545
VWidth: 0
Flags: W
HStem: -32 46<574.291 864.477> 1493 35<885.881 1134.72>
VStem: 161 225<295.146 669.917> 1375 195<852.754 1209.76>
LayerCount: 3
Fore
SplineSet
161 540 m 0
 161 893 498 1528 1008 1528 c 0
 1416 1528 1570 1249 1570 973 c 0
 1570 337 1021 -32 728 -32 c 0
 622 -32 161 26 161 540 c 0
386 352 m 0
 386 90 547 14 709 14 c 0
 895 14 983 80 1085 216 c 0
 1233 412 1375 951 1375 1138 c 0
 1375 1400 1183 1493 1020 1493 c 0
 826 1493 666 1445 487 883 c 0
 429 701 386 504 386 352 c 0
EndSplineSet
Validated: 1
EndChar

StartChar: A
Encoding: 65 65 3
Width: 1694
VWidth: 0
Flags: W
HStem: 0 54<72 216 296 576 824 1058 1268 1500> 636 54<864 1226>
LayerCount: 3
Fore
SplineSet
72 0 m 25
 72 54 l 25
 216 54 l 17
 1417 1375 1535 1502 1584 1502 c 0
 1591 1502 1606 1498 1606 1482 c 0
 1606 1399 1555 1192 1268 54 c 9
 1500 54 l 25
 1500 0 l 17
 824 0 l 9
 824 54 l 25
 1058 54 l 25
 1226 636 l 25
 821 636 l 25
 296 54 l 25
 576 54 l 25
 576 0 l 25
 72 0 l 25
864 690 m 9
 1242 690 l 17
 1423 1306 l 1
 864 690 l 9
EndSplineSet
Validated: 1
EndChar

StartChar: x
Encoding: 120 120 4
Width: 1206
VWidth: 0
Flags: HW
HStem: -10 112<696 909> 15 96<238 356> 655 255<1003 1195> 820 110<388 608>
VStem: 25 221<115 244>
LayerCount: 3
Fore
SplineSet
779 103 m 0xa8
 943 103 1007 272 1054 272 c 0
 1066 272 1088 264 1088 234 c 0
 1088 164 920 -10 740 -10 c 0xa8
 535 -10 495 162 495 167 c 1
 452 120 338 15 185 15 c 0
 115 15 25 65 25 148 c 0
 25 220 83 270 147 270 c 0
 192 270 246 223 246 180 c 0
 246 120 238 111 238 111 c 1
 259 112 330 110 448 250 c 0
 492 302 622 535 622 713 c 0
 622 781 581 820 520 820 c 0
 446 820 344 763 253 636 c 0
 241 620 226 610 210 610 c 0
 189 610 159 628 159 662 c 0
 159 710 337 930 567 930 c 0x58
 652 930 749 905 774 762 c 1
 876 867 985 910 1072 910 c 0
 1178 910 1228 843 1228 778 c 0
 1228 716 1183 655 1098 655 c 0
 1055 655 999 680 965 767 c 1
 913 752 866 706 824 645 c 0
 730 507 670 297 670 221 c 0
 670 157 731 103 779 103 c 0xa8
EndSplineSet
EndChar

StartChar: z
Encoding: 122 122 5
Width: 1118
VWidth: 0
Flags: HW
HStem: -40 22G<109 133> -24 196<442 729> 714 207<289 722>
VStem: 874 119<235 400>
LayerCount: 3
Fore
SplineSet
68 -3 m 0xb0
 68 6 75 16 94 36 c 2
 722 714 l 1
 333 714 l 2
 306 714 306 709 293 676 c 2
 245 554 l 2
 230 515 206 504 187 504 c 0
 166 504 150 517 150 541 c 0
 150 553 154 562 163 586 c 2
 281 882 l 2
 296 917 307 920 328 920 c 0
 573 920 713 920 958 920 c 0
 987 920 983 920 995 893 c 0
 997 886 1000 879 1000 873 c 0
 1000 860 986 851 943 806 c 2
 355 190 l 1
 442 205 451 207 479 207 c 0
 562 207 622 172 682 172 c 0
 758 172 820 203 850 265 c 0
 862 290 864 310 874 343 c 0
 881 369 908 403 939 403 c 0
 970 403 993 388 993 336 c 0
 993 173 742 -24 549 -24 c 0x70
 438 -24 375 58 301 58 c 0
 190 58 150 -40 117 -40 c 0
 101 -40 68 -16 68 -3 c 0xb0
EndSplineSet
Layer: 2
SplineSet
83.4599609375 -3.2099609375 m 4
 83.4599609375 5.349609375 89.8798828125 17.1201171875 108.0703125 36.3798828125 c 6
 701.919921875 692.290039062 l 5
 323.139648438 692.290039062 l 6
 296.389648438 692.290039062 298.530273438 688.009765625 284.620117188 654.83984375 c 6
 238.610351562 548.91015625 l 6
 222.559570312 510.389648438 211.860351562 503.969726562 197.950195312 503.969726562 c 4
 150.870117188 503.969726562 146.58984375 521.08984375 146.58984375 541.419921875 c 4
 146.58984375 553.190429688 149.799804688 562.8203125 157.290039062 586.360351562 c 6
 266.4296875 881.6796875 l 6
 280.33984375 916.990234375 289.969726562 920.200195312 311.370117188 920.200195312 c 4
 556.400390625 920.200195312 695.5 920.200195312 940.530273438 920.200195312 c 4
 969.419921875 920.200195312 966.209960938 916.990234375 979.049804688 890.240234375 c 4
 981.190429688 882.75 985.469726562 879.540039062 985.469726562 873.120117188 c 4
 985.469726562 860.280273438 970.490234375 850.650390625 929.830078125 805.709960938 c 6
 353.099609375 190.459960938 l 5
 439.651367188 205.677734375 460.258789062 206.5234375 487.817382812 206.5234375 c 4
 571.047851562 206.5234375 630.794921875 172.26953125 691.219726562 172.26953125 c 4
 767.190429688 172.26953125 828.1796875 203.299804688 856 265.360351562 c 4
 866.700195312 289.969726562 873.120117188 319.9296875 873.120117188 354.169921875 c 4
 873.120117188 397.991210938 904.353515625 413.688476562 935.624023438 413.688476562 c 4
 966.965820312 413.688476562 998.341796875 397.870117188 998.341796875 335.799804688 c 4
 998.341796875 174.546875 757.051757812 -23.5400390625 564.959960938 -23.5400390625 c 4
 453.6796875 -23.5400390625 387.33984375 57.7802734375 313.509765625 57.7802734375 c 4
 202.23046875 57.7802734375 166.919921875 -39.58984375 133.75 -39.58984375 c 4
 117.700195312 -39.58984375 83.4599609375 -16.0498046875 83.4599609375 -3.2099609375 c 4
EndSplineSet
EndChar

StartChar: w
Encoding: 119 119 6
Width: 1640
VWidth: 0
Flags: HW
HStem: -34 62<275 435 886 1059> 875 58<52 272>
VStem: 101 154<39 346> 704 164<37 261> 924 187<859 928> 1561 85<527 817>
LayerCount: 3
Fore
SplineSet
52 903 m 0
 52 929 71 933 78 933 c 2
 435 933 l 2
 454 933 462 931 462 917 c 0
 462 863 255 240 255 114 c 0
 255 63 292 28 352 28 c 0
 434 28 557 91 681 258 c 0
 728 321 767 408 804 515 c 2
 924 859 l 2
 942 911 945 930 995 930 c 2
 1068 930 l 2
 1096 930 1112 929 1112 905 c 0
 1112 894 1109 879 1102 859 c 2
 1022 628 l 2
 894 255 868 177 868 114 c 0
 868 58 895 30 963 30 c 0
 1231 30 1561 353 1561 621 c 0
 1561 723 1387 740 1387 834 c 0
 1387 896 1435 927 1491 927 c 0
 1563 927 1646 873 1646 762 c 0
 1646 364 1295 -25 912 -25 c 0
 738 -25 704 64 704 134 c 0
 704 178 717 212 717 212 c 1
 717 212 524 -34 288 -34 c 0
 141 -34 101 49 101 147 c 0
 101 237 134 339 152 407 c 2
 245 769 l 2
 254 805 265 841 272 875 c 1
 78 875 l 2
 58 875 52 890 52 903 c 0
EndSplineSet
Layer: 2
SplineSet
462.240234375 916.775390625 m 4
 462.240234375 862.848632812 254.231445312 240.108398438 254.231445312 114.275390625 c 4
 254.231445312 62.916015625 291.46875 28.248046875 351.815429688 28.248046875 c 4
 433.991210938 28.248046875 555.971679688 91.1640625 680.51953125 258.083984375 c 4
 728.028320312 321 766.548828125 408.311523438 803.784179688 514.883789062 c 6
 924.48046875 858.99609375 l 6
 942.456054688 911.639648438 945.024414062 929.616210938 995.099609375 929.616210938 c 6
 1068.28808594 929.616210938 l 6
 1096.53613281 929.616210938 1111.94433594 928.33203125 1111.94433594 905.219726562 c 4
 1111.94433594 894.948242188 1109.37597656 879.540039062 1101.671875 858.99609375 c 6
 1022.06445312 627.875976562 l 6
 893.6640625 254.231445312 867.984375 177.19140625 867.984375 114.275390625 c 4
 867.984375 59.064453125 894.948242188 29.53125 963 29.53125 c 4
 1230.07128906 29.53125 1561.34375 353.099609375 1561.34375 620.171875 c 4
 1561.34375 721.608398438 1386.71972656 739.583984375 1386.71972656 833.315429688 c 4
 1386.71972656 894.948242188 1435.51171875 927.048828125 1490.72460938 927.048828125 c 4
 1562.62792969 927.048828125 1646.08886719 873.120117188 1646.08886719 761.411132812 c 4
 1646.08886719 363.37109375 1294.27148438 -24.3955078125 911.639648438 -24.3955078125 c 4
 737.015625 -24.3955078125 703.631835938 64.2001953125 703.631835938 133.536132812 c 4
 703.631835938 177.19140625 716.471679688 211.860351562 716.471679688 211.860351562 c 5
 716.471679688 211.860351562 523.87109375 -34.66796875 287.616210938 -34.66796875 c 4
 141.240234375 -34.66796875 100.151367188 47.5087890625 100.151367188 146.375976562 c 4
 100.151367188 236.255859375 133.536132812 338.975585938 151.51171875 407.028320312 c 6
 245.244140625 769.116210938 l 6
 254.231445312 805.068359375 264.50390625 841.01953125 272.208007812 875.688476562 c 5
 78.32421875 875.688476562 l 6
 57.7802734375 875.688476562 52.64453125 889.811523438 52.64453125 902.651367188 c 4
 52.64453125 928.33203125 70.6201171875 933.46875 78.32421875 933.46875 c 6
 435.275390625 933.46875 l 6
 454.536132812 933.46875 462.240234375 930.900390625 462.240234375 916.775390625 c 4
EndSplineSet
EndChar

StartChar: v
Encoding: 118 118 7
Width: 1240
VWidth: 0
Flags: HW
HStem: -33 73<391 625> 814 96<277 559>
VStem: 198 182<46 240> 449 204<673 860> 1027 168<496 743>
LayerCount: 3
Fore
SplineSet
121 760 m 0
 121 805 328 911 522 911 c 0
 596 911 654 890 654 829 c 0
 654 733 380 180 380 114 c 0
 380 58 407 41 475 41 c 0
 743 41 1027 407 1027 539 c 0
 1027 694 919 676 919 797 c 0
 919 861 984 892 1028 892 c 0
 1116 892 1195 795 1195 690 c 0
 1195 565 1073 207 753 41 c 0
 668 -3 561 -33 407 -33 c 0
 294 -33 198 -3 198 85 c 0
 198 201 449 675 449 754 c 0
 449 798 425 814 384 814 c 0
 321 814 231 775 187 744 c 0
 174 734 164 728 152 728 c 0
 132 728 121 759 121 760 c 0
EndSplineSet
EndChar

StartChar: u
Encoding: 117 117 8
Width: 1326
VWidth: 0
Flags: HW
HStem: -27 126<238 488> 0 100<873 1108> 841 79<75 369>
VStem: 97 187<106 304> 769 174<55 283>
LayerCount: 3
Back
SplineSet
114.490234375 920.200195312 m 6
 533.9296875 920.200195312 l 6
 561.75 920.200195312 569.240234375 912.709960938 569.240234375 899.870117188 c 4
 569.240234375 846.370117188 284.620117188 253.58984375 284.620117188 171.200195312 c 4
 284.620117188 119.83984375 322.0703125 99.509765625 381.990234375 99.509765625 c 4
 535 99.509765625 674.099609375 189.389648438 762.91015625 311.370117188 c 4
 882.75 477.219726562 982.259765625 730.809570312 1043.25 869.91015625 c 4
 1060.37011719 908.4296875 1072.13964844 940.530273438 1127.78027344 940.530273438 c 6
 1183.41992188 940.530273438 l 6
 1213.37988281 940.530273438 1230.5 938.389648438 1230.5 916.990234375 c 4
 1230.5 852.790039062 943.740234375 285.690429688 943.740234375 163.709960938 c 4
 943.740234375 117.700195312 973.700195312 99.509765625 1013.29003906 99.509765625 c 4
 1103.16992188 99.509765625 1165.23046875 162.639648438 1208.03027344 200.08984375 c 4
 1226.21972656 216.139648438 1240.12988281 228.98046875 1251.90039062 228.98046875 c 4
 1255.11035156 228.98046875 1284 222.559570312 1284 197.950195312 c 4
 1284 147.66015625 1106.37988281 0 908.4296875 0 c 4
 801.4296875 0 769.330078125 28.8896484375 769.330078125 81.3203125 c 4
 769.330078125 147.66015625 787.51953125 172.26953125 805.709960938 234.330078125 c 5
 670.889648438 89.8798828125 434.419921875 -26.75 287.830078125 -26.75 c 4
 187.25 -26.75 97.3701171875 18.1904296875 97.3701171875 125.190429688 c 4
 97.3701171875 185.110351562 126.259765625 269.639648438 185.110351562 406.599609375 c 6
 316.719726562 714.759765625 l 6
 331.700195312 749 352.030273438 798.219726562 369.150390625 841.01953125 c 5
 103.790039062 841.01953125 l 6
 84.5302734375 841.01953125 74.900390625 857.0703125 74.900390625 875.259765625 c 4
 74.900390625 896.66015625 81.3203125 920.200195312 114.490234375 920.200195312 c 6
EndSplineSet
Fore
SplineSet
114 920 m 2xb8
 534 920 l 2
 562 920 569 913 569 900 c 0
 569 846 285 253 285 171 c 0
 285 120 322 100 382 100 c 0xb8
 535 100 674 189 763 311 c 0
 883 477 972 711 1033 850 c 0
 1050 889 1061 920 1117 920 c 2
 1173 920 l 2
 1203 920 1220 918 1220 897 c 0
 1220 833 944 286 944 164 c 0
 944 118 973 100 1013 100 c 0
 1103 100 1165 163 1208 200 c 0
 1226 216 1240 229 1252 229 c 0
 1255 229 1284 223 1284 198 c 0
 1284 148 1106 0 908 0 c 0x78
 801 0 769 29 769 81 c 0
 769 147 788 172 806 234 c 1
 671 90 435 -27 288 -27 c 0
 187 -27 97 18 97 125 c 0
 97 185 126 270 185 407 c 2
 317 715 l 2
 332 749 352 798 369 841 c 1
 104 841 l 2
 85 841 75 857 75 875 c 0
 75 896 81 920 114 920 c 2xb8
EndSplineSet
EndChar

StartChar: t
Encoding: 116 116 9
Width: 797
VWidth: 0
Flags: HW
HStem: -35 117<175 420> 834 87<115 355 566 814>
VStem: 76 203<85 266>
LayerCount: 3
Fore
SplineSet
620 240 m 0
 634 250 644 255 649 255 c 0
 665 255 681 239 681 219 c 0
 681 208 677 197 667 186 c 0
 606 119 415 -35 232 -35 c 0
 119 -35 76 15 76 90 c 0
 76 142 100 211 134 294 c 2
 355 834 l 1
 318 834 153 834 139 834 c 0
 117 834 114 857 114 875 c 0
 114 887 117 920 157 920 c 0
 164 920 348 920 392 920 c 1
 505 1206 l 2
 518 1240 526 1241 565 1241 c 2
 638 1241 l 2
 659 1241 677 1240 677 1222 c 0
 677 1218 676 1212 674 1206 c 2
 566 920 l 1
 630 920 768 919 779 919 c 0
 807 919 815 913 815 896 c 0
 815 849 797 834 776 834 c 0
 765 834 603 834 530 834 c 1
 430 595 l 2
 325 356 279 239 279 166 c 0
 279 104 307 81 343 81 c 0
 430 81 577 211 620 240 c 0
EndSplineSet
Layer: 2
SplineSet
619.530273438 254.66015625 m 4
 633.440429688 264.290039062 644.139648438 269.639648438 649.490234375 269.639648438 c 4
 665.540039062 269.639648438 680.51953125 254.66015625 680.51953125 234.330078125 c 4
 680.51953125 223.629882812 676.240234375 211.860351562 666.610351562 201.16015625 c 4
 605.620117188 133.75 415.16015625 -20.330078125 232.190429688 -20.330078125 c 4
 118.76953125 -20.330078125 75.9697265625 29.9599609375 75.9697265625 104.860351562 c 4
 75.9697265625 157.290039062 99.509765625 225.76953125 133.75 309.23046875 c 6
 355.240234375 848.509765625 l 5
 317.790039062 848.509765625 153.009765625 844.23046875 139.099609375 844.23046875 c 4
 116.629882812 844.23046875 114.490234375 867.76953125 114.490234375 885.959960938 c 4
 114.490234375 897.73046875 117.700195312 942.669921875 157.290039062 942.669921875 c 4
 164.780273438 942.669921875 347.75 935.1796875 391.620117188 935.1796875 c 5
 505.040039062 1220.87011719 l 6
 517.879882812 1255.11035156 526.440429688 1256.1796875 564.959960938 1256.1796875 c 6
 637.719726562 1256.1796875 l 6
 659.120117188 1256.1796875 677.309570312 1255.11035156 677.309570312 1236.91992188 c 4
 677.309570312 1232.63964844 676.240234375 1227.29003906 674.099609375 1220.87011719 c 6
 566.030273438 935.1796875 l 5
 630.23046875 935.1796875 768.259765625 941.599609375 778.959960938 941.599609375 c 4
 806.780273438 941.599609375 815.33984375 935.1796875 815.33984375 918.059570312 c 4
 815.33984375 870.98046875 797.150390625 844.23046875 775.75 844.23046875 c 4
 765.049804688 844.23046875 602.41015625 848.509765625 529.650390625 848.509765625 c 5
 430.139648438 609.900390625 l 6
 325.280273438 371.290039062 279.26953125 253.58984375 279.26953125 180.830078125 c 4
 279.26953125 118.76953125 307.08984375 96.2998046875 343.469726562 96.2998046875 c 4
 430.139648438 96.2998046875 576.73046875 225.76953125 619.530273438 254.66015625 c 4
EndSplineSet
EndChar

StartChar: a
Encoding: 97 97 10
Width: 1185
VWidth: 0
Flags: HW
HStem: -27 136<216 423> -11 105<727 952> 835 96<532 774>
VStem: 63 186<118 406> 806 289<652 919>
LayerCount: 3
Fore
SplineSet
63 170 m 0xb8
 63 522 399 931 652 931 c 0
 805 931 848 809 854 796 c 1
 895 879 911 931 981 931 c 2
 1052 931 l 2
 1079 931 1095 929 1095 908 c 0
 1095 852 786 330 786 164 c 0
 786 123 802 94 844 94 c 0
 952 94 1085 243 1085 243 c 0
 1099 257 1111 262 1122 262 c 0
 1140 262 1152 247 1152 230 c 0
 1152 162 966 -11 761 -11 c 0x78
 666 -11 614 34 614 85 c 0
 614 110 615 134 616 148 c 1
 615 147 412 -27 261 -27 c 0
 170 -27 63 36 63 170 c 0xb8
249 242 m 0
 249 147 277 109 340 109 c 0xb8
 448 109 599 203 682 335 c 0
 749 441 806 629 806 675 c 0
 806 767 765 835 658 835 c 0
 453 835 249 445 249 242 c 0
EndSplineSet
EndChar

StartChar: b
Encoding: 98 98 11
Width: 1017
VWidth: 0
Flags: HW
HStem: -39 91<200 516> 860 64<624 807> 1387 79<237 553>
VStem: 82 198<66 271> 853 197<478 830>
LayerCount: 3
Fore
SplineSet
82 99 m 0
 82 218 486 1213 553 1387 c 1
 258 1387 l 2
 239 1387 236 1416 236 1425 c 2
 236 1431 l 2
 236 1464 259 1466 273 1466 c 2
 708 1466 l 2
 729 1466 739 1463 739 1450 c 0
 739 1439 737 1422 727 1398 c 2
 493 822 l 1
 493 822 612 924 797 924 c 0
 983 924 1050 832 1050 694 c 0
 1050 354 688 -39 273 -39 c 0
 127 -39 82 19 82 99 c 0
279 177 m 0
 279 88 319 52 378 52 c 0
 524 52 716 220 802 459 c 0
 828 530 853 606 853 686 c 0
 853 802 804 860 727 860 c 0
 665 860 500 820 403 591 c 0
 357 483 279 298 279 177 c 0
EndSplineSet
EndChar

StartChar: c
Encoding: 99 99 12
Width: 758
VWidth: 0
Flags: W
HStem: 499 259<362.212 549.659>
VStem: 328 254<531.492 722.946>
LayerCount: 3
Fore
SplineSet
328 622 m 0
 328 704 392 758 464 758 c 0
 531 758 582 698 582 631 c 0
 582 559 527 499 455 499 c 0
 387 499 328 554 328 622 c 0
EndSplineSet
Validated: 1
EndChar

StartChar: d
Encoding: 100 100 13
Width: 758
VWidth: 0
Flags: W
HStem: 499 259<362.212 549.659>
VStem: 328 254<531.492 722.946>
LayerCount: 3
Fore
SplineSet
328 622 m 0
 328 704 392 758 464 758 c 0
 531 758 582 698 582 631 c 0
 582 559 527 499 455 499 c 0
 387 499 328 554 328 622 c 0
EndSplineSet
Validated: 1
EndChar

StartChar: e
Encoding: 101 101 14
Width: 758
VWidth: 0
Flags: W
HStem: 499 259<362.212 549.659>
VStem: 328 254<531.492 722.946>
LayerCount: 3
Fore
SplineSet
328 622 m 0
 328 704 392 758 464 758 c 0
 531 758 582 698 582 631 c 0
 582 559 527 499 455 499 c 0
 387 499 328 554 328 622 c 0
EndSplineSet
Validated: 1
EndChar

StartChar: f
Encoding: 102 102 15
Width: 758
VWidth: 0
Flags: W
HStem: 499 259<362.212 549.659>
VStem: 328 254<531.492 722.946>
LayerCount: 3
Fore
SplineSet
328 622 m 0
 328 704 392 758 464 758 c 0
 531 758 582 698 582 631 c 0
 582 559 527 499 455 499 c 0
 387 499 328 554 328 622 c 0
EndSplineSet
Validated: 1
EndChar

StartChar: g
Encoding: 103 103 16
Width: 758
VWidth: 0
Flags: W
HStem: 499 259<362.212 549.659>
VStem: 328 254<531.492 722.946>
LayerCount: 3
Fore
SplineSet
328 622 m 0
 328 704 392 758 464 758 c 0
 531 758 582 698 582 631 c 0
 582 559 527 499 455 499 c 0
 387 499 328 554 328 622 c 0
EndSplineSet
Validated: 1
EndChar

StartChar: h
Encoding: 104 104 17
Width: 758
VWidth: 0
Flags: W
HStem: 499 259<362.212 549.659>
VStem: 328 254<531.492 722.946>
LayerCount: 3
Fore
SplineSet
328 622 m 0
 328 704 392 758 464 758 c 0
 531 758 582 698 582 631 c 0
 582 559 527 499 455 499 c 0
 387 499 328 554 328 622 c 0
EndSplineSet
Validated: 1
EndChar

StartChar: i
Encoding: 105 105 18
Width: 758
VWidth: 0
Flags: W
HStem: 499 259<362.212 549.659>
VStem: 328 254<531.492 722.946>
LayerCount: 3
Fore
SplineSet
328 622 m 0
 328 704 392 758 464 758 c 0
 531 758 582 698 582 631 c 0
 582 559 527 499 455 499 c 0
 387 499 328 554 328 622 c 0
EndSplineSet
Validated: 1
EndChar

StartChar: j
Encoding: 106 106 19
Width: 758
VWidth: 0
Flags: W
HStem: 499 259<362.212 549.659>
VStem: 328 254<531.492 722.946>
LayerCount: 3
Fore
SplineSet
328 622 m 0
 328 704 392 758 464 758 c 0
 531 758 582 698 582 631 c 0
 582 559 527 499 455 499 c 0
 387 499 328 554 328 622 c 0
EndSplineSet
Validated: 1
EndChar

StartChar: k
Encoding: 107 107 20
Width: 758
VWidth: 0
Flags: W
HStem: 499 259<362.212 549.659>
VStem: 328 254<531.492 722.946>
LayerCount: 3
Fore
SplineSet
328 622 m 0
 328 704 392 758 464 758 c 0
 531 758 582 698 582 631 c 0
 582 559 527 499 455 499 c 0
 387 499 328 554 328 622 c 0
EndSplineSet
Validated: 1
EndChar

StartChar: l
Encoding: 108 108 21
Width: 758
VWidth: 0
Flags: W
HStem: 499 259<362.212 549.659>
VStem: 328 254<531.492 722.946>
LayerCount: 3
Fore
SplineSet
328 622 m 0
 328 704 392 758 464 758 c 0
 531 758 582 698 582 631 c 0
 582 559 527 499 455 499 c 0
 387 499 328 554 328 622 c 0
EndSplineSet
Validated: 1
EndChar

StartChar: m
Encoding: 109 109 22
Width: 758
VWidth: 0
Flags: W
HStem: 499 259<362.212 549.659>
VStem: 328 254<531.492 722.946>
LayerCount: 3
Fore
SplineSet
328 622 m 0
 328 704 392 758 464 758 c 0
 531 758 582 698 582 631 c 0
 582 559 527 499 455 499 c 0
 387 499 328 554 328 622 c 0
EndSplineSet
Validated: 1
EndChar

StartChar: n
Encoding: 110 110 23
Width: 758
VWidth: 0
Flags: W
HStem: 499 259<362.212 549.659>
VStem: 328 254<531.492 722.946>
LayerCount: 3
Fore
SplineSet
328 622 m 0
 328 704 392 758 464 758 c 0
 531 758 582 698 582 631 c 0
 582 559 527 499 455 499 c 0
 387 499 328 554 328 622 c 0
EndSplineSet
Validated: 1
EndChar

StartChar: o
Encoding: 111 111 24
Width: 758
VWidth: 0
Flags: W
HStem: 499 259<362.212 549.659>
VStem: 328 254<531.492 722.946>
LayerCount: 3
Fore
SplineSet
328 622 m 0
 328 704 392 758 464 758 c 0
 531 758 582 698 582 631 c 0
 582 559 527 499 455 499 c 0
 387 499 328 554 328 622 c 0
EndSplineSet
Validated: 1
EndChar

StartChar: p
Encoding: 112 112 25
Width: 758
VWidth: 0
Flags: W
HStem: 499 259<362.212 549.659>
VStem: 328 254<531.492 722.946>
LayerCount: 3
Fore
SplineSet
328 622 m 0
 328 704 392 758 464 758 c 0
 531 758 582 698 582 631 c 0
 582 559 527 499 455 499 c 0
 387 499 328 554 328 622 c 0
EndSplineSet
Validated: 1
EndChar

StartChar: q
Encoding: 113 113 26
Width: 758
VWidth: 0
Flags: W
HStem: 499 259<362.212 549.659>
VStem: 328 254<531.492 722.946>
LayerCount: 3
Fore
SplineSet
328 622 m 0
 328 704 392 758 464 758 c 0
 531 758 582 698 582 631 c 0
 582 559 527 499 455 499 c 0
 387 499 328 554 328 622 c 0
EndSplineSet
Validated: 1
EndChar

StartChar: r
Encoding: 114 114 27
Width: 1012
VWidth: 0
Flags: HW
HStem: 0 22G<118 241> 841 79<96 355> 857 93<742 838>
VStem: 822 207<702 857>
LayerCount: 3
Fore
SplineSet
81 27 m 0xb0
 81 39 86 54 95 78 c 2
 355 841 l 1
 123 841 l 2
 112 841 96 850 96 886 c 0
 96 904 107 920 141 920 c 2
 524 920 l 2xd0
 556 920 556 914 556 907 c 0
 556 898 536 865 476 691 c 1
 581 789 732 950 899 950 c 0
 970 950 1028 903 1028 826 c 0
 1028 723 965 673 908 673 c 0
 863 673 822 705 822 770 c 0
 822 813 838 857 838 857 c 1
 790 857 531 734 404 418 c 0
 239 8 290 0 193 0 c 2
 141 0 l 2
 95 0 81 0 81 27 c 0xb0
EndSplineSet
EndChar

StartChar: s
Encoding: 115 115 28
Width: 874
VWidth: 0
Flags: HW
HStem: -24 83<281 505> 840 91<423 616>
VStem: 238 155<598 784> 542 167<116 281>
LayerCount: 3
Fore
SplineSet
45 171 m 0
 45 229 83 257 128 257 c 0
 167 257 212 215 248 142 c 0
 279 80 346 60 397 60 c 0
 471 60 542 109 542 179 c 0
 542 339 238 379 238 647 c 0
 238 815 428 931 600 931 c 0
 711 931 825 871 825 776 c 0
 825 720 788 681 743 681 c 0
 635 681 662 840 513 840 c 0
 442 840 393 776 393 714 c 0
 393 520 709 463 709 262 c 0
 709 81 528 -24 343 -24 c 0
 202 -24 45 37 45 171 c 0
EndSplineSet
EndChar

